<?xml version="1.0" encoding="iso-8859-1"?>
<!-- Generator: Adobe Illustrator 25.0.0, SVG Export Plug-In . SVG Version: 6.00 Build 0)  -->
<svg version="1.1" xmlns="http://www.w3.org/2000/svg" xmlns:xlink="http://www.w3.org/1999/xlink" x="0px" y="0px" width="500px"
	 height="500px" viewBox="0 0 500 500" enable-background="new 0 0 500 500" xml:space="preserve">
<g id="Background">
</g>
<g id="Object">
	<g>
		<g>
			<path fill="#FF6C6C" d="M256.132,254.44c-4.56-11.72-39.78-41.88-39.78-41.88s-3.2,28.05-16.87,26.1
				c-13.68-1.95-40.06-48.04-40.06-48.04s-25.08-4.57-36.48,0c-11.39,4.55-49.5,26.71-51.77,36.14
				c-2.28,9.44-27.36,84.02-28.34,96.07c-0.97,12.05-3.25,19.86,5.22,30.93c8.47,11.07,9.43,14,9.43,14l-0.34,1.33l-9.97,38.79
				l-12.15,47.16h191.47l-2.62-27.9l-0.97-10.25l-0.09-0.93c0,0,0.07-0.17,0.2-0.5c-8.62,2.56-17.39,1.48-22.08-4.54
				c-9.11-11.73,0-30.29,0-30.29s10.91-21.49,25.78-35.22c10.37-9.58,24.32-15.42,24.32-15.42s4.78-19.75,7.81-23.88
				c0.32-0.43,0.73-0.92,1.23-1.44C260.042,291.38,259.572,263.28,256.132,254.44z M226.032,344.68
				c-4.54,4.19-8.73,9.13-12.36,13.96c-0.44,0.4-6.64,5.89-13.41,9.89c-4.43,2.63-9.98,1.51-14.43,0.62
				c-2.47-0.5-4.59-0.93-6.33-0.75c-1.46,0.15-3.71,0.96-7.12,2.19c-8.26,2.98-23.64,8.52-49.75,12.47
				c-32.06,4.84-50.3-4.72-53.87-6.85c1.25-3.53,3.06-9.18,5.75-18.22c3.15-10.56,6.15-21.23,6.66-23.06l16.42-15.16
				c1.58,0.91,6.2,3.16,18.84,7.58c4.16,1.46,9.25,3.27,14.62,5.17c16.47,5.86,35.15,12.49,38.78,13.11
				c0.25,0.05,0.53,0.07,0.83,0.07c2.67,0,7.22-1.61,12.84-3.59c6.55-2.31,13.98-4.93,19.1-5.09c7.79-0.26,23.23,2.03,29.14,2.96
				C229.782,341.43,227.852,343,226.032,344.68z"/>
			<path fill="#16D6BA" d="M333.032,176.31c-26.13,0-47.32,21.19-47.32,47.32c0,24.01,17.87,43.83,41.02,46.91l5.12-15.04
				l4.54-13.34c1.06-3.1,3.98-5.19,7.26-5.19h34.8c1.25-4.23,1.91-8.71,1.91-13.34C380.362,197.5,359.182,176.31,333.032,176.31z
				 M326.961,210.888c-7.419,0-13.433-6.014-13.433-13.433c0-7.419,6.014-13.433,13.433-13.433c7.419,0,13.433,6.014,13.433,13.433
				C340.394,204.874,334.38,210.888,326.961,210.888z M354.804,208.283c-1.754,0-3.175-1.422-3.175-3.175
				c0-1.753,1.422-3.175,3.175-3.175s3.175,1.422,3.175,3.175C357.979,206.861,356.557,208.283,354.804,208.283z"/>
			<path fill="#363634" d="M234.289,340.376c-0.187,0-0.376-0.052-0.545-0.162c-0.463-0.301-0.594-0.92-0.292-1.383
				c0.064-0.099,6.421-10.01,7.684-23.477c1.103-11.764-1.387-26.833-2.584-34.075c-0.197-1.195-0.355-2.152-0.45-2.814
				c-0.677-4.738,4.176-19.375,4.383-19.997c0.174-0.523,0.74-0.808,1.265-0.632c0.524,0.175,0.807,0.741,0.632,1.265
				c-1.368,4.104-4.807,15.534-4.301,19.081c0.093,0.652,0.249,1.594,0.443,2.771c1.21,7.325,3.729,22.566,2.602,34.587
				c-1.311,13.979-7.727,23.963-8,24.381C234.935,340.216,234.615,340.376,234.289,340.376z"/>
			<path fill="#363634" d="M214.612,417.748c-6.103,0-11.304-2.151-14.469-6.213c-9.386-12.086-0.492-30.564-0.108-31.345
				c0.116-0.229,11.169-21.821,26-35.514c9.311-8.602,21.61-14.284,24.145-15.404c0.774-3.141,4.98-19.83,7.857-23.752
				c0.378-0.509,0.82-1.026,1.315-1.542c2.105-2.265,5.55-5.216,8.882-8.069c3.211-2.75,6.244-5.348,7.782-7.073
				c2.594-2.904,4.377-2.597,5.209-2.157c1.411,0.748,1.9,2.757,1.277,5.245l0,0c-0.939,3.738-20.986,42.213-24.124,48.223
				l7.862,6.328l-0.234,0.667c-0.128,0.367-12.968,36.852-21.696,52.857c-4.142,7.604-11.997,13.743-21.013,16.42
				C220.289,417.312,217.359,417.748,214.612,417.748z M280.065,288.399c-0.434,0-1.303,0.362-2.557,1.767
				c-1.627,1.825-4.71,4.465-7.974,7.261c-3.29,2.817-6.691,5.73-8.73,7.924c-0.449,0.467-0.835,0.919-1.16,1.356
				c-2.385,3.25-6.324,18.08-7.641,23.519l-0.119,0.492l-0.467,0.195c-0.138,0.058-13.913,5.888-24.027,15.232
				c-14.562,13.446-25.459,34.725-25.567,34.938c-0.082,0.168-8.717,18.13-0.102,29.224c4.072,5.226,12.12,6.834,21.006,4.195
				c8.52-2.53,15.932-8.309,19.826-15.46c8.002-14.674,19.542-46.861,21.33-51.897l-8.038-6.47l0.38-0.728
				c6.504-12.439,23.554-45.402,24.336-48.511c0.434-1.733,0.102-2.792-0.274-2.991
				C280.236,288.417,280.161,288.399,280.065,288.399z M281.532,291.68h0.01H281.532z"/>
			<path fill="#363634" d="M307.733,277.72l-14.86,28.02l-6.61-3.32c-0.27-0.15-0.56-0.25-0.87-0.33c-2.13-0.6-4.47,0.37-5.51,2.44
				c-1.17,2.34-0.23,5.19,2.12,6.37l-3.55-1.78c-1.04-0.52-2.19-0.63-3.26-0.36c-1.05,0.25-2.02,0.87-2.69,1.78
				c-0.17,0.21-0.31,0.44-0.44,0.68c-0.12,0.24-0.22,0.49-0.29,0.75c-0.52,1.68-0.05,3.48,1.15,4.71c0.36,0.37,0.78,0.69,1.26,0.92
				l3.55,1.8c-2.15-1.08-4.68-0.4-6.02,1.5l-0.02,0.02c-0.12,0.18-0.24,0.38-0.34,0.58c-0.38,0.77-0.55,1.57-0.51,2.36v0.05
				c0.03,0.27,0.06,0.54,0.13,0.8c0.32,1.32,1.18,2.51,2.48,3.17l5.02,2.51c-0.35-0.17-0.7-0.29-1.06-0.37
				c-2.08-0.47-4.3,0.5-5.29,2.49c-1.19,2.35-0.25,5.2,2.1,6.39l0.56,0.28l0.27,0.13l-5.78,10.88l-4.21-3.38l-7.96-6.39l0.01-0.01
				c0,0,0.05-0.1,0.15-0.29l20.04-39.18l0.04-0.07l15.68-30.66C297.503,273.36,302.453,275.91,307.733,277.72z"/>
			<path fill="#363634" d="M323.943,281.856l-0.764-0.048c-5.396-0.34-10.703-1.397-15.772-3.143
				c-5.304-1.817-10.337-4.387-14.959-7.637c-16.089-11.276-25.695-29.732-25.695-49.368c0-33.228,27.032-60.26,60.26-60.26
				c33.233,0,60.27,27.033,60.27,60.26c0,5.303-0.685,10.541-2.034,15.569l-0.199,0.741h-7.936l0.379-1.283
				c1.24-4.197,1.869-8.59,1.869-13.057c0-25.541-20.784-46.32-46.33-46.32c-25.541,0-46.32,20.779-46.32,46.32
				c0,23.132,17.262,42.874,40.152,45.919l1.207,0.161L323.943,281.856z M327.012,163.4c-32.125,0-58.26,26.135-58.26,58.26
				c0,18.984,9.288,36.827,24.844,47.731c4.469,3.142,9.334,5.626,14.46,7.383c4.663,1.605,9.532,2.608,14.486,2.985l2.856-8.403
				c-23.28-3.697-40.687-24.001-40.687-47.726c0-26.644,21.676-48.32,48.32-48.32c26.649,0,48.33,21.676,48.33,48.32
				c0,4.206-0.535,8.351-1.592,12.34h3.739c1.176-4.632,1.772-9.442,1.772-14.31C385.282,189.535,359.143,163.4,327.012,163.4z"/>
			<path fill="#363634" d="M65.411,382.196c-0.399,0-0.764-0.214-0.973-0.581c-1.254-2.194-7.437-12.708-7.793-13.314l-9.695-14.375
				l0.142-0.458c0.363-1.168,9.019-28.732,20.843-38.257c12.167-9.801,29.382,1.979,30.109,2.486l1.021,0.711l-17.894,16.523
				c-0.512,1.828-3.508,12.495-6.66,23.06c-7.151,23.971-8.03,24.081-8.962,24.196C65.503,382.193,65.457,382.196,65.411,382.196z
				 M66.174,380.623h0.01H66.174z M49.146,353.607l9.206,13.653c0.057,0.096,4.963,8.438,7.085,12.087
				c2.461-5.542,9.58-29.801,13.885-45.228l0.077-0.273l16.442-15.183c-3.84-2.325-17.268-9.453-26.651-1.896
				C58.639,325.268,50.334,349.948,49.146,353.607z"/>
			<path fill="#363634" d="M104.951,386.441c-24.728,0.001-37.344-8.543-37.978-8.984c-0.453-0.315-0.564-0.938-0.25-1.391
				c0.314-0.453,0.938-0.567,1.391-0.251c0.184,0.127,18.767,12.649,54.518,7.246c26.114-3.946,41.493-9.491,49.754-12.471
				c3.404-1.227,5.652-2.038,7.117-2.189c1.734-0.177,3.861,0.25,6.326,0.744c4.456,0.896,10.001,2.011,14.436-0.61
				c6.99-4.131,13.372-9.857,13.436-9.915c0.41-0.371,1.042-0.338,1.412,0.073c0.37,0.41,0.337,1.042-0.073,1.412
				c-0.065,0.059-6.59,5.916-13.757,10.151c-5.097,3.012-11.057,1.812-15.847,0.85c-2.305-0.463-4.294-0.863-5.726-0.716
				c-1.222,0.126-3.497,0.947-6.645,2.082c-8.327,3.002-23.826,8.591-50.134,12.566
				C116.358,386.032,110.363,386.441,104.951,386.441z"/>
			<path fill="#363634" d="M170.667,345.697c-0.304,0-0.583-0.021-0.836-0.065c-3.633-0.626-22.301-7.255-38.771-13.104
				c-5.373-1.908-10.464-3.716-14.632-5.173c-16.459-5.753-19.312-7.84-19.583-8.059c-0.43-0.347-0.497-0.977-0.149-1.406
				c0.348-0.43,0.977-0.496,1.406-0.149c0.097,0.072,2.893,2.102,18.986,7.727c4.169,1.457,9.265,3.267,14.641,5.176
				c15.583,5.534,34.978,12.421,38.442,13.019c1.958,0.338,7.159-1.495,12.664-3.436c6.689-2.358,14.271-5.03,19.698-5.208
				c9.913-0.327,31.03,3.221,31.923,3.373c0.545,0.092,0.912,0.608,0.819,1.152s-0.608,0.914-1.152,0.819
				c-0.217-0.037-21.813-3.666-31.525-3.345c-5.119,0.168-12.546,2.786-19.099,5.095
				C177.884,344.091,173.329,345.696,170.667,345.697z"/>
			<path fill="#363634" d="M192.794,347.778c-0.483,0-0.908-0.351-0.987-0.843c-0.086-0.545,0.285-1.058,0.831-1.145
				c1.102-0.175,27.083-4.279,37.08-3.95c0.552,0.019,0.984,0.481,0.965,1.034c-0.019,0.551-0.452,0.983-1.034,0.965
				c-9.782-0.333-36.429,3.883-36.697,3.926C192.899,347.774,192.846,347.778,192.794,347.778z"/>
			<path fill="#363634" d="M201.425,355.091c-0.44,0-0.844-0.293-0.965-0.739c-0.145-0.533,0.17-1.083,0.704-1.227l22.673-6.148
				c0.535-0.14,1.083,0.171,1.227,0.704c0.145,0.533-0.17,1.083-0.704,1.227l-22.673,6.148
				C201.6,355.079,201.511,355.091,201.425,355.091z"/>
			<path fill="#363634" d="M92.615,316.782c-0.11,0-0.222-0.019-0.331-0.057c-0.521-0.183-0.795-0.753-0.612-1.274
				c0.195-0.556,19.518-55.744,19.202-65.861c-0.323-10.326-0.003-27.771,0-27.945c0.011-0.552,0.487-0.969,1.019-0.981
				c0.552,0.01,0.992,0.466,0.981,1.019c-0.003,0.175-0.322,17.569,0,27.846c0.327,10.486-18.512,64.3-19.314,66.585
				C93.415,316.524,93.028,316.782,92.615,316.782z"/>
			<path fill="#363634" d="M194.587,262.607c-0.009,0-0.018,0-0.026,0c-25.515-0.663-42.244-57.96-42.943-60.398
				c-0.152-0.531,0.155-1.085,0.686-1.237c0.531-0.152,1.085,0.155,1.237,0.686c0.167,0.583,17.016,58.326,41.072,58.951
				c0.552,0.014,0.988,0.473,0.974,1.025C195.572,262.177,195.127,262.607,194.587,262.607z"/>
			<path fill="#363634" d="M223.868,427.136c-6.696,0.204-14.782,0.051-22.448-1.084c-17.576-2.602-18.877-23.761-18.902-28.646
				c-0.026-3.903-95.02,6.122-135.35,10.471l9.974-38.786c3.393,4.949,7.831,11.454,8.163,12.027
				c0.548,0.944,1.377-2.206,2.245-3.252c0.855-1.046,6.326,1.518,11.862,3.801c5.535,2.27,20.088,4.987,35.712,3.763
				c15.637-1.237,55.622-13.188,61.795-15.548c6.186-2.36,16.606,2.207,21.019,0.727c4.26-1.416,16.849-12.168,17.627-12.831
				c-0.306,0.434-3.176,4.324-5.995,8.52c-2.985,4.451-10.51,19.132-10.51,19.132c-4.311,9.234-1.212,23.149,3.775,28.366
				c4.171,4.349,16.224,3.495,20.063,3.099L223.868,427.136z"/>
			<g>
				<path fill="#363634" d="M293.759,317.26c-0.883,0-1.767-0.204-2.58-0.617l-9.624-4.844c-2.829-1.43-3.978-4.892-2.564-7.719
					c1.227-2.454,4.031-3.697,6.675-2.951c0.404,0.1,0.772,0.242,1.093,0.426l9.593,4.807c1.373,0.698,2.392,1.882,2.874,3.338
					c0.484,1.46,0.37,3.016-0.322,4.381c-0.432,0.876-1.1,1.634-1.93,2.193C296.007,316.928,294.885,317.26,293.759,317.26z
					 M284.121,302.919c-1.395,0-2.7,0.773-3.341,2.056c-0.922,1.845-0.172,4.104,1.674,5.037l9.628,4.846
					c1.202,0.611,2.648,0.519,3.773-0.242c0.545-0.367,0.979-0.858,1.257-1.424l0.006-0.012c0.451-0.887,0.525-1.9,0.21-2.851
					c-0.315-0.952-0.982-1.727-1.876-2.181l-9.638-4.832c-0.208-0.117-0.408-0.192-0.66-0.255
					C284.81,302.965,284.463,302.919,284.121,302.919z"/>
				<path fill="#363634" d="M289.494,325.753c-0.883,0-1.769-0.204-2.584-0.614l-13.177-6.646c-0.545-0.257-1.068-0.637-1.53-1.116
					c-1.709-1.757-2.124-4.411-1.029-6.601c0.782-1.519,2.162-2.604,3.79-2.988c1.312-0.329,2.718-0.176,3.941,0.436l13.178,6.634
					c2.829,1.422,3.979,4.885,2.562,7.718l-0.003,0.006c-0.441,0.869-1.105,1.624-1.92,2.183
					C291.75,325.42,290.624,325.753,289.494,325.753z M281.103,319.982l6.706,3.371c1.213,0.612,2.664,0.52,3.787-0.241
					c0.533-0.365,0.971-0.862,1.261-1.432c0.923-1.849,0.172-4.106-1.673-5.034l-13.176-6.633c-0.805-0.402-1.695-0.499-2.573-0.28
					c-1.071,0.252-1.97,0.961-2.478,1.949c-0.709,1.419-0.438,3.153,0.682,4.304c0.296,0.308,0.623,0.546,0.974,0.712
					L281.103,319.982z M293.75,322.129h0.01H293.75z"/>
				<path fill="#363634" d="M285.223,334.235c-0.884,0-1.77-0.203-2.586-0.614l-4.393-2.221h-0.766l-0.003-0.386l-4.465-2.239
					c-1.515-0.772-2.611-2.169-3.011-3.836c-0.067-0.27-0.117-0.577-0.151-0.93l-0.004-0.146c-0.046-0.936,0.161-1.896,0.616-2.807
					c0.125-0.251,0.268-0.5,0.425-0.72l0.062-0.081c1.671-2.296,4.699-3.032,7.237-1.748l9.627,4.845
					c2.482,1.233,3.718,4.049,2.938,6.699c-0.088,0.333-0.208,0.657-0.367,0.989c-0.462,0.909-1.128,1.665-1.938,2.21
					C287.476,333.904,286.352,334.235,285.223,334.235z M279.47,329.779l4.068,2.057c1.211,0.61,2.661,0.518,3.785-0.242
					c0.538-0.362,0.962-0.845,1.263-1.437c0.096-0.202,0.172-0.409,0.23-0.628l0.009-0.032c0.512-1.719-0.292-3.551-1.91-4.355
					l-9.632-4.848c-1.675-0.849-3.674-0.348-4.755,1.187l-0.059,0.079c-0.081,0.123-0.154,0.257-0.221,0.392
					c-0.3,0.6-0.437,1.227-0.406,1.864c0.017,0.223,0.047,0.441,0.099,0.648c0.266,1.105,0.983,2.023,1.971,2.526l4.807,2.41h0.173
					l0.188,0.181L279.47,329.779z"/>
				<path fill="#363634" d="M280.984,342.709c-0.891,0-1.785-0.205-2.607-0.62l-4.603-2.295c-2.838-1.434-3.98-4.903-2.549-7.735
					c1.18-2.36,3.812-3.603,6.407-3.011c0.387,0.083,0.745,0.199,1.079,0.351h0.18l0.188,0.182l4.458,2.254
					c1.375,0.688,2.401,1.873,2.885,3.335c0.481,1.456,0.367,3.012-0.324,4.38c-0.428,0.868-1.088,1.625-1.911,2.19
					C283.224,342.384,282.106,342.709,280.984,342.709z M276.349,330.906c-1.399,0-2.696,0.772-3.336,2.052
					c-0.936,1.851-0.189,4.115,1.661,5.05l4.601,2.294c1.219,0.615,2.671,0.53,3.793-0.218c0.53-0.364,0.962-0.857,1.239-1.42
					l0.005-0.01c0.451-0.892,0.526-1.906,0.212-2.855c-0.315-0.954-0.985-1.727-1.884-2.176l-4.396-2.223h-0.766l-0.003-0.33
					c-0.087-0.025-0.178-0.048-0.273-0.069C276.916,330.937,276.63,330.906,276.349,330.906z"/>
			</g>
			<g>
				<path fill="#363634" d="M225.05,145.84c-1.067,2.801-0.241,5.716,1.846,6.511s4.643-0.83,5.711-3.631s0.241-5.716-1.846-6.511
					S226.117,143.04,225.05,145.84z"/>
				<path fill="#363634" d="M253.496,151.306c-1.929-0.735-4.276,0.721-5.24,3.252c-0.965,2.531-0.183,5.18,1.747,5.915
					c1.929,0.735,4.276-0.721,5.24-3.252C256.207,154.69,255.425,152.042,253.496,151.306z"/>
				<path fill="#363634" d="M243.652,162.418c-1.444-0.97-2.938-1.972-3.214-3.332c-0.489-2.412,2.995-4.937,4.379-5.706
					c0.482-0.268,0.657-0.876,0.389-1.359c-0.267-0.482-0.875-0.659-1.358-0.391c-0.256,0.141-6.251,3.513-5.371,7.853
					c0.439,2.165,2.446,3.513,4.059,4.595c1.788,1.2,2.374,1.728,2.096,2.299c-0.913,1.875-4.068,2.591-5.208,2.709
					c-0.549,0.057-0.949,0.547-0.893,1.096c0.053,0.515,0.486,0.898,0.993,0.898c0.033,0,0.067-0.001,0.101-0.005
					c0.212-0.021,5.215-0.56,6.804-3.824C247.52,165.015,245.375,163.575,243.652,162.418z"/>
				<path fill="#363634" d="M229.096,138.295c2.719,0.065,3.815,1.328,5.892,2.266s2.413-1.01-0.964-3.373
					c-3.377-2.364-7.081-0.777-7.081-0.777s-2.454,0.645-2.528,1.362C224.343,138.489,226.378,138.23,229.096,138.295z"/>
				<path fill="#363634" d="M257.219,147.095c-2.368-1.973-5.408-0.857-5.408-0.857s-1.971,0.421-2.105,0.981
					c-0.133,0.56,1.472,0.428,3.574,0.574c2.101,0.146,2.818,1.176,4.329,1.985C259.119,150.586,259.587,149.068,257.219,147.095z"
					/>
				<path fill="#363634" d="M237.475,176.39c-5.826-1.898-15.351-0.73-15.754-0.68c-0.548,0.069-0.936,0.569-0.867,1.117
					c0.068,0.548,0.573,0.935,1.117,0.868c0.095-0.013,9.484-1.162,14.885,0.597c0.103,0.034,0.207,0.05,0.31,0.05
					c0.421,0,0.813-0.269,0.951-0.691C238.288,177.125,238,176.561,237.475,176.39z"/>
				<path fill="#363634" d="M229.419,181.972l-2.234-0.383c-0.543-0.091-1.061,0.273-1.155,0.817
					c-0.093,0.544,0.272,1.062,0.817,1.155l2.234,0.383c0.057,0.01,0.114,0.014,0.17,0.014c0.479,0,0.901-0.344,0.985-0.831
					C230.33,182.582,229.964,182.065,229.419,181.972z"/>
			</g>
			
				<ellipse transform="matrix(0.4152 -0.9098 0.9098 0.4152 -16.2391 281.2606)" fill="#FF5F5F" cx="210.635" cy="153.26" rx="5.061" ry="7.101"/>
			
				<ellipse transform="matrix(0.4152 -0.9098 0.9098 0.4152 -9.6721 326.7939)" fill="#FF5F5F" cx="249.333" cy="170.92" rx="2.978" ry="3.334"/>
			<g>
				<path fill="#363634" d="M189.795,131.523c-2.321,0.995-2.996,3.77-3.023,3.887c-0.125,0.536,0.207,1.071,0.742,1.199
					c0.078,0.019,0.155,0.027,0.232,0.027c0.451,0,0.861-0.309,0.972-0.766c0.005-0.019,0.482-1.923,1.873-2.513
					c0.804-0.34,1.84-0.165,3.06,0.47c0.251,1.505,0.176,3.282-0.514,5.364c-0.174,0.524,0.11,1.09,0.634,1.264
					c0.104,0.035,0.211,0.051,0.315,0.051c0.419,0,0.81-0.266,0.949-0.686c0.886-2.673,0.907-4.953,0.486-6.85
					c-0.007-0.036-0.015-0.071-0.026-0.106c-1.087-4.673-4.857-6.98-4.911-7.012c-0.472-0.28-1.083-0.125-1.367,0.348
					c-0.283,0.473-0.128,1.086,0.344,1.371c0.144,0.087,2.116,1.316,3.316,3.793C191.76,131.073,190.728,131.124,189.795,131.523z"
					/>
				<path fill="#363634" d="M267.46,159.046c-0.076,0.057-0.129,0.096-0.129,0.096C267.229,159.278,267.293,159.229,267.46,159.046z
					"/>
				<path fill="#363634" d="M285.687,122.178c-4.269-20.46-27.042-22.422-27.042-22.422s-0.481-4.676-4.685-7.748
					c-0.451-0.329-0.891-0.597-1.322-0.829c-2.464-2.17-5.926-4.546-10.789-6.868c-15.594-7.449-39.572-7.035-56.283,8.935
					c-4.179,3.993-7.506,7.783-10.11,11.406c-5.317-2.53-12.243-4.073-20.568-2.162c-17.422,3.999-21.422,23.868-18.339,36.648
					c-9.401,4.396-21.356,13.078-13.065,26.842c10.355,17.19,31.87,16.234,43.685,7.357c0.221,0.322,0.482,0.648,0.785,0.985
					c2.206,2.459,2.945,2.722,2.945,2.722s0.105-0.135,0.286-0.377c-4.733,9.132-10.848,13.853-10.934,13.919
					c-0.44,0.333-0.528,0.959-0.195,1.4c0.197,0.26,0.496,0.397,0.799,0.397c0.209,0,0.421-0.065,0.601-0.201
					c0.478-0.36,10.825-8.322,15.24-24.006c2.267-4.01,4.585-8.934,5.686-13.802c2.531-11.183,2.531-11.183,2.531-11.183
					s-7.582-6.524-5.114-13.341c2.468-6.816,11.318-10.813,15.791-2.708c4.473,8.105,6.886,8.598,14.874,8.247
					c7.988-0.35,19.178-4.222,19.178-4.222l0.005-0.005c8.057-2.316,12.765-5.805,12.765-5.805s-1.46,3.692-9.143,13.301
					c-6.343,7.933-17.07,11.488-20.618,12.487c-0.227,0.064-0.188,0.396,0.047,0.406c2.948,0.132,10.871-0.117,20.016-5.41
					c11.605-6.717,22.395-25.775,22.395-25.775s5.194,6.146,6.176,18.683c0.783,9.993-3.049,19.658-4.637,23.171
					c-0.096,0.106-0.176,0.229-0.22,0.374c-0.005,0.016-0.041,0.133-0.103,0.325c-0.213,0.448-0.342,0.696-0.342,0.696
					s0.055-0.023,0.134-0.059c-1.611,4.883-9.399,27.159-19.198,33.062c-10.02,6.035-18.574,1.817-18.932,1.635l-1.153-0.592
					l-0.062,0.278c-16.327-7.271-27.539-19.622-30.542-23.18c-0.27-0.32-0.791-0.125-0.776,0.293
					c0.189,5.166,1.514,24.795,10.787,36.817c10.75,13.936,14.027,14.571,14.027,14.571s2.064-3.533,3.703-9.134
					c0.347-0.095,0.633-0.364,0.716-0.739l3.557-16.032c2.908,1.094,10.806,3.156,19.706-2.204
					c11.617-6.998,20.036-34.003,20.388-35.149c0.089-0.289,0.031-0.58-0.117-0.818c2.474-1.614,6.659-5.018,10.81-11.513
					c6.472-10.126,6.136-21.261,6.136-21.261s1.964,4.22,0.14,13.452c-1.656,8.379-6.848,14.908-7.849,16.005
					C269.191,157.744,289.778,141.782,285.687,122.178z M130.633,164.447c-5.29-6.499,1.05-15.396,7.106-21.577
					c0.394,0.97,0.831,1.875,1.32,2.684C145.697,156.532,139.57,175.426,130.633,164.447z"/>
			</g>
			<path fill="#363634" d="M298.208,401.83h-5.116c-2.834,0-5.404-1.32-7.052-3.622c-1.645-2.297-2.065-5.148-1.155-7.821
				l50.56-148.55c1.2-3.51,4.498-5.868,8.207-5.868h113.66c2.779,0,5.319,1.282,6.969,3.518c1.648,2.232,2.124,5.034,1.307,7.687
				l-21.716,70.723l-0.86-0.139c-0.279-0.045-0.54-0.067-0.8-0.067h-94.47c-1.946,0-3.662,1.243-4.27,3.092l-18.524,56.848h-15.306
				c-1.922,0-3.631,1.227-4.253,3.052L298.208,401.83z M343.652,237.97c-2.854,0-5.391,1.814-6.313,4.514l-50.56,148.549
				c-0.7,2.055-0.376,4.246,0.888,6.012c1.267,1.771,3.245,2.786,5.425,2.786h3.684l6.72-19.792
				c0.898-2.638,3.369-4.409,6.147-4.409h13.854l18.076-55.47c0.879-2.674,3.359-4.47,6.17-4.47h94.47
				c0.082,0,0.163,0.001,0.244,0.004l21.22-69.109c0.629-2.04,0.263-4.194-1.004-5.91c-1.269-1.72-3.223-2.706-5.36-2.706H343.652z"
				/>
			<path fill="#363634" d="M457.312,236.97h-113.66c-3.28,0-6.2,2.09-7.26,5.19l-4.54,13.34h130.13l2.65-8.62
				C466.152,241.95,462.462,236.97,457.312,236.97z M350.952,246.24c-0.31,1.97-2.16,3.57-4.14,3.57c-1.97,0-3.32-1.6-3.01-3.57
				c0.32-1.98,2.17-3.58,4.14-3.58C349.922,242.66,351.262,244.26,350.952,246.24z M363.052,246.24c-0.31,1.97-2.17,3.57-4.14,3.57
				c-1.97,0-3.32-1.6-3.01-3.57c0.31-1.98,2.17-3.58,4.14-3.58C362.022,242.66,363.362,244.26,363.052,246.24z M375.152,246.24
				c-0.22,1.37-1.18,2.56-2.41,3.16c-0.54,0.26-1.13,0.41-1.73,0.41c-1.98,0-3.32-1.6-3.01-3.57c0.31-1.98,2.17-3.58,4.14-3.58
				c1.63,0,2.83,1.09,3.02,2.58C375.212,245.56,375.202,245.89,375.152,246.24z"/>
			<path fill="#363634" d="M413.083,428.21h-50.058l13.913-44.757c0.429-1.376,0.185-2.832-0.67-3.994
				c-0.855-1.163-2.173-1.829-3.615-1.829h-49.807l18.727-57.47c0.88-2.675,3.359-4.47,6.171-4.47h94.47
				c0.365,0,0.731,0.03,1.119,0.093c1.821,0.319,3.417,1.403,4.394,2.976c0.969,1.562,1.227,3.47,0.708,5.234l-29.129,99.558
				C418.506,426.293,415.948,428.21,413.083,428.21z M365.741,426.21h47.342c2.012,0,3.74-1.293,4.3-3.219l29.131-99.563
				c0.364-1.236,0.191-2.52-0.488-3.614c-0.676-1.09-1.779-1.84-3.026-2.059c-0.268-0.043-0.53-0.065-0.787-0.065h-94.47
				c-1.946,0-3.662,1.243-4.271,3.093l-17.872,54.847h47.052c2.085,0,3.989,0.963,5.226,2.644s1.589,3.785,0.969,5.774
				L365.741,426.21z"/>
			<path fill="#16D6BA" d="M377.893,383.75l-5.31,17.08l-8.2,26.38l-3.5,11.27c-0.72,2.29-2.84,3.86-5.24,3.86h-64.59
				c-3.76,0-6.4-3.7-5.2-7.25l11.64-34.26l6.95-20.47c0.76-2.23,2.85-3.73,5.2-3.73h63.01
				C376.353,376.63,378.993,380.22,377.893,383.75z"/>
			<path fill="#363634" d="M355.643,443.34h-64.59c-2.115,0-4.036-0.986-5.27-2.706c-1.236-1.722-1.556-3.859-0.878-5.864
				l18.59-54.731c0.899-2.638,3.369-4.409,6.147-4.409h63.01c2.085,0,3.989,0.963,5.226,2.644c1.236,1.68,1.589,3.784,0.97,5.773
				l-17.01,54.729C360.979,441.507,358.491,443.34,355.643,443.34z M309.643,377.63c-1.922,0-3.631,1.227-4.254,3.053L286.8,435.412
				c-0.468,1.385-0.247,2.864,0.609,4.056c0.854,1.19,2.182,1.872,3.645,1.872h64.59c1.969,0,3.692-1.27,4.286-3.16l17.01-54.728
				c0.429-1.376,0.184-2.832-0.671-3.994c-0.855-1.163-2.173-1.829-3.615-1.829H309.643z"/>
		</g>
		<g>
			<path fill="#363634" d="M345.343,118.035l6.372-0.91l1.289,9.026l-6.372,0.91l1.743,12.203l-11.159,1.594l-1.743-12.203
				l-23.053,3.292l-1.508-6.978l18.132-40.499l11.275-1.611L345.343,118.035z M321.75,121.405l12.434-1.776l-2.844-19.912
				l-0.551,1.384L321.75,121.405z"/>
			<path fill="#363634" d="M395.244,108.773c1.114,7.8,0.357,13.996-2.271,18.587c-2.627,4.591-7.043,7.331-13.247,8.217
				c-6.127,0.875-11.101-0.482-14.925-4.075c-3.822-3.59-6.312-9.165-7.471-16.721l-1.483-10.382
				c-1.125-7.877-0.351-14.088,2.323-18.634c2.673-4.545,7.073-7.256,13.2-8.131c6.126-0.875,11.101,0.476,14.922,4.055
				c3.821,3.579,6.31,9.146,7.469,16.702L395.244,108.773z M382.453,98.953c-0.668-4.68-1.792-7.994-3.371-9.946
				c-1.578-1.95-3.72-2.733-6.423-2.347c-2.625,0.375-4.418,1.667-5.376,3.874c-0.959,2.208-1.168,5.476-0.628,9.805l1.961,13.727
				c0.657,4.602,1.77,7.932,3.337,9.989s3.729,2.89,6.483,2.496c2.729-0.39,4.544-1.744,5.449-4.062
				c0.903-2.318,1.065-5.691,0.485-10.12L382.453,98.953z"/>
			<path fill="#363634" d="M436.087,105.073l6.372-0.91l1.289,9.026l-6.372,0.91l1.743,12.203l-11.159,1.594l-1.743-12.203
				l-23.053,3.293l-1.509-6.979l18.132-40.499l11.275-1.611L436.087,105.073z M412.494,108.443l12.434-1.776l-2.844-19.912
				l-0.551,1.384L412.494,108.443z"/>
		</g>
		<path fill="#363634" d="M414.811,220.936c-0.062,0-0.124-0.005-0.187-0.018c-0.542-0.102-0.899-0.625-0.797-1.168
			c0.01-0.052,0.979-5.252,1.291-11.793c0.026-0.552,0.51-0.956,1.046-0.952c0.552,0.026,0.978,0.495,0.952,1.046
			c-0.318,6.688-1.283,11.853-1.324,12.07C415.702,220.602,415.282,220.936,414.811,220.936z M415.725,197.02
			c-0.493,0-0.922-0.365-0.99-0.867c-0.619-4.625-1.832-8.274-3.604-10.846c-0.313-0.455-0.199-1.077,0.256-1.391
			c0.455-0.314,1.077-0.2,1.391,0.256c1.778,2.579,3.036,6.076,3.746,10.408c0.099-0.05,0.208-0.085,0.324-0.1
			c2.207-0.288,4.598-0.968,7.108-2.019c1.37-0.574,2.552-1.245,3.515-1.997c0.435-0.339,1.063-0.262,1.404,0.173
			c0.339,0.436,0.262,1.064-0.173,1.404c-1.103,0.86-2.44,1.622-3.973,2.264c-2.674,1.12-5.238,1.846-7.622,2.158
			c-0.161,0.02-0.318,0.002-0.461-0.048c-0.134,0.312-0.425,0.548-0.786,0.596C415.814,197.017,415.77,197.02,415.725,197.02z
			 M405.687,193.653c-0.23,0-0.461-0.079-0.65-0.241c-2.639-2.262-4.278-5.648-4.278-8.837c0-1.173,0.233-2.25,0.674-3.116
			c0.25-0.493,0.853-0.691,1.345-0.438c0.492,0.25,0.688,0.853,0.438,1.345c-0.299,0.586-0.457,1.351-0.457,2.209
			c0,2.055,0.94,5.057,3.58,7.319c0.419,0.359,0.468,0.991,0.108,1.41C406.249,193.535,405.969,193.653,405.687,193.653z
			 M431.595,181.517c-0.462,0-0.876-0.321-0.977-0.791c-0.646-3.023-2.308-6.54-4.94-10.452c-0.309-0.458-0.187-1.08,0.271-1.388
			c0.457-0.309,1.08-0.187,1.388,0.271c2.776,4.125,4.538,7.876,5.237,11.15c0.115,0.54-0.229,1.072-0.769,1.187
			C431.734,181.51,431.664,181.517,431.595,181.517z M419.028,161.32c-0.273,0-0.544-0.111-0.742-0.329
			c-2.509-2.771-5.334-5.625-8.399-8.481c-0.404-0.376-0.426-1.009-0.05-1.413c0.376-0.405,1.01-0.426,1.413-0.05
			c3.106,2.895,5.972,5.789,8.518,8.601c0.371,0.41,0.339,1.042-0.07,1.413C419.507,161.234,419.267,161.32,419.028,161.32z"/>
	</g>
</g>
</svg>
